<svg xmlns="http://www.w3.org/2000/svg" viewBox="0 0 400 300" fill="none">
  <defs>
    <linearGradient id="g1" x1="0%" y1="0%" x2="100%" y2="100%">
      <stop offset="0%" stop-color="#0e1a2f"/>
      <stop offset="100%" stop-color="#0a1220"/>
    </linearGradient>
    <linearGradient id="accent1" x1="0%" y1="0%" x2="100%" y2="100%">
      <stop offset="0%" stop-color="#06b6d4" stop-opacity="0.6"/>
      <stop offset="100%" stop-color="#0891b2" stop-opacity="0.3"/>
    </linearGradient>
  </defs>
  <rect width="400" height="300" fill="url(#g1)"/>
  <!-- Laptop screen -->
  <rect x="100" y="55" width="200" height="135" rx="8" fill="#0c1426" stroke="url(#accent1)" stroke-width="1.5"/>
  <rect x="108" y="62" width="184" height="120" rx="4" fill="#0f172a"/>
  <!-- Screen content - student/general use -->
  <rect x="120" y="78" width="70" height="6" rx="3" fill="#06b6d4" opacity="0.5"/>
  <rect x="120" y="92" width="155" height="5" rx="2.5" fill="#ffffff" opacity="0.12"/>
  <rect x="120" y="103" width="140" height="5" rx="2.5" fill="#ffffff" opacity="0.08"/>
  <rect x="120" y="114" width="120" height="5" rx="2.5" fill="#ffffff" opacity="0.06"/>
  <!-- Document icon -->
  <rect x="240" y="75" width="30" height="38" rx="3" fill="rgba(255,255,255,0.06)" stroke="rgba(255,255,255,0.1)" stroke-width="1"/>
  <rect x="246" y="82" width="18" height="3" rx="1.5" fill="#06b6d4" opacity="0.3"/>
  <rect x="246" y="89" width="18" height="3" rx="1.5" fill="rgba(255,255,255,0.1)"/>
  <rect x="246" y="96" width="14" height="3" rx="1.5" fill="rgba(255,255,255,0.08)"/>
  <!-- Laptop base -->
  <path d="M80 195 L100 190 L300 190 L320 195 L330 205 L70 205 Z" fill="#0c1426" stroke="rgba(255,255,255,0.08)" stroke-width="1"/>
  <rect x="140" y="193" width="120" height="4" rx="2" fill="rgba(255,255,255,0.05)"/>
  <!-- i5 badge -->
  <rect x="260" y="210" width="40" height="14" rx="3" fill="#06b6d4" opacity="0.1"/>
  <text x="280" y="220" font-family="system-ui" font-size="7" fill="#06b6d4" text-anchor="middle" opacity="0.5">i5</text>
  <circle cx="200" cy="130" r="70" fill="#06b6d4" opacity="0.02"/>
</svg>
