<svg xmlns="http://www.w3.org/2000/svg" viewBox="0 0 400 300" fill="none">
  <defs>
    <linearGradient id="g1" x1="0%" y1="0%" x2="100%" y2="100%">
      <stop offset="0%" stop-color="#0e1a2f"/>
      <stop offset="100%" stop-color="#0a1220"/>
    </linearGradient>
    <linearGradient id="accent1" x1="0%" y1="0%" x2="100%" y2="100%">
      <stop offset="0%" stop-color="#06b6d4" stop-opacity="0.5"/>
      <stop offset="100%" stop-color="#0891b2" stop-opacity="0.3"/>
    </linearGradient>
  </defs>
  <rect width="400" height="300" fill="url(#g1)"/>
  <!-- Thin ultrabook screen -->
  <rect x="105" y="60" width="190" height="125" rx="6" fill="#0c1426" stroke="url(#accent1)" stroke-width="1.5"/>
  <rect x="112" y="66" width="176" height="112" rx="3" fill="#0f172a"/>
  <!-- Clean minimal content -->
  <rect x="125" y="82" width="60" height="5" rx="2.5" fill="#06b6d4" opacity="0.4"/>
  <rect x="125" y="95" width="145" height="4" rx="2" fill="#ffffff" opacity="0.1"/>
  <rect x="125" y="106" width="130" height="4" rx="2" fill="#ffffff" opacity="0.07"/>
  <rect x="125" y="117" width="110" height="4" rx="2" fill="#ffffff" opacity="0.05"/>
  <rect x="125" y="135" width="50" height="20" rx="5" fill="#06b6d4" opacity="0.12"/>
  <!-- Ultra-thin base -->
  <path d="M90 190 L105 185 L295 185 L310 190 L315 195 L85 195 Z" fill="#0c1426" stroke="rgba(255,255,255,0.08)" stroke-width="1"/>
  <rect x="155" y="187" width="90" height="3" rx="1.5" fill="rgba(255,255,255,0.05)"/>
  <!-- Thin profile indicator -->
  <text x="200" y="215" font-family="system-ui" font-size="8" fill="#06b6d4" text-anchor="middle" opacity="0.4">1.3 kg</text>
  <circle cx="200" cy="125" r="60" fill="#06b6d4" opacity="0.02"/>
</svg>
